<?xml version="1.0" standalone="no"?><svg xmlns="http://www.w3.org/2000/svg" viewBox="0 50 1440 320"><path fill="#F7E4DE" fill-opacity="1" d="M0,224L48,186.7C96,149,192,75,288,85.3C384,96,480,192,576,197.3C672,203,768,117,864,96C960,75,1056,117,1152,117.3C1248,117,1344,75,1392,53.3L1440,32L1440,320L1392,320C1344,320,1248,320,1152,320C1056,320,960,320,864,320C768,320,672,320,576,320C480,320,384,320,288,320C192,320,96,320,48,320L0,320Z" style="--darkreader-inline-fill:#ffb39a;" data-darkreader-inline-fill=""></path></svg>
